<?xml version="1.0" standalone="no"?>
<!DOCTYPE svg PUBLIC "-//W3C//DTD SVG 20010904//EN"
 "http://www.w3.org/TR/2001/REC-SVG-20010904/DTD/svg10.dtd">
<svg version="1.0" xmlns="http://www.w3.org/2000/svg"
 width="97.000000pt" height="96.000000pt" viewBox="0 0 97.000000 96.000000"
 preserveAspectRatio="xMidYMid meet">
<metadata>
Created by potrace 1.16, written by Peter Selinger 2001-2019
</metadata>
<g transform="translate(0.000000,96.000000) scale(0.100000,-0.100000)"
fill="#000000" stroke="none">
<path d="M45 918 c-3 -7 -4 -209 -3 -448 l3 -435 120 0 120 0 3 28 3 27 330 0
329 0 0 30 c0 20 -5 30 -15 30 -13 0 -15 43 -15 330 0 287 2 330 15 330 10 0
15 10 15 30 l0 30 -299 0 -300 0 -3 28 -3 27 -148 3 c-112 2 -149 0 -152 -10z
m233 -157 c-3 -103 -5 -112 -33 -153 -29 -40 -94 -87 -122 -88 -10 0 -13 42
-13 175 l0 175 86 0 86 0 -4 -109z m572 -131 l0 -180 -37 0 c-22 0 -49 -9 -63
-20 -32 -25 -51 -25 -92 0 -43 26 -114 26 -148 0 -32 -25 -51 -25 -92 0 -39
24 -114 26 -142 5 -18 -14 -22 -13 -47 11 l-28 26 42 32 c65 49 100 123 105
223 l5 83 248 0 249 0 0 -180z m-690 -216 c52 -45 60 -70 60 -204 l0 -120 -55
0 -55 0 0 175 c0 100 4 175 9 175 5 0 23 -12 41 -26z m248 -57 c37 -22 101
-19 130 6 31 26 49 26 95 1 64 -34 92 -32 166 11 35 20 51 9 51 -36 0 -38 -1
-39 -37 -39 -22 0 -49 -9 -63 -20 -32 -25 -51 -25 -92 0 -43 26 -114 26 -148
0 -32 -25 -51 -25 -92 0 -21 13 -51 20 -81 20 l-48 0 3 32 c2 22 10 36 27 44
26 13 38 10 89 -19z m0 -150 c37 -22 101 -19 130 6 31 26 49 26 95 1 64 -34
92 -32 166 11 35 20 51 9 51 -36 l0 -39 -281 0 -280 0 3 32 c2 22 10 36 27 44
26 13 38 10 89 -19z"/>
<path d="M606 689 c-33 -39 -33 -79 0 -118 21 -26 33 -31 69 -31 36 0 48 5 69
31 15 17 26 43 26 59 0 16 -11 42 -26 59 -21 26 -33 31 -69 31 -36 0 -48 -5
-69 -31z"/>
</g>
</svg>
