<?xml version="1.0" standalone="no"?>
<!DOCTYPE svg PUBLIC "-//W3C//DTD SVG 20010904//EN"
 "http://www.w3.org/TR/2001/REC-SVG-20010904/DTD/svg10.dtd">
<svg version="1.0" xmlns="http://www.w3.org/2000/svg"
 width="96.000000pt" height="96.000000pt" viewBox="0 0 96.000000 96.000000"
 preserveAspectRatio="xMidYMid meet">
<metadata>
Created by potrace 1.16, written by Peter Selinger 2001-2019
</metadata>
<g transform="translate(0.000000,96.000000) scale(0.100000,-0.100000)"
fill="#000000" stroke="none">
<path d="M334 836 c-43 -43 -47 -86 -8 -86 16 0 37 12 54 30 34 36 44 37 75 5
17 -16 25 -35 25 -60 l0 -35 -180 0 -180 0 0 -30 0 -30 180 0 180 0 0 -75 c0
-69 -2 -75 -21 -75 -11 0 -38 -10 -60 -22 l-39 -23 -39 23 c-52 29 -110 29
-161 0 -34 -19 -40 -28 -40 -55 0 -41 17 -43 76 -8 l43 25 47 -25 c59 -32 96
-32 150 0 l43 25 47 -25 c59 -32 96 -32 150 0 l43 25 47 -25 c63 -33 74 -32
74 8 0 27 -6 36 -40 55 -21 12 -48 22 -59 22 -19 0 -21 6 -21 75 l0 75 60 0
60 0 0 30 0 30 -60 0 -60 0 0 56 c0 50 -3 59 -34 90 -29 29 -41 34 -83 34 -28
0 -58 -7 -71 -16 -20 -14 -24 -14 -44 0 -13 9 -43 16 -71 16 -42 0 -54 -5 -83
-34z m324 -288 c-3 -78 -4 -83 -30 -98 -25 -13 -31 -13 -55 0 -27 15 -28 20
-31 98 l-3 82 61 0 61 0 -3 -82z"/>
<path d="M158 307 c-31 -18 -38 -28 -38 -54 0 -41 17 -43 76 -8 l43 25 47 -25
c59 -32 96 -32 150 0 l43 25 47 -25 c59 -32 96 -32 150 0 l43 25 47 -25 c63
-33 74 -32 74 8 0 27 -6 36 -40 55 -51 29 -109 29 -161 -1 l-39 -22 -39 23
c-24 13 -57 22 -81 22 -24 0 -57 -9 -81 -22 l-39 -23 -39 23 c-51 29 -114 28
-163 -1z"/>
<path d="M158 157 c-31 -18 -38 -28 -38 -54 0 -41 17 -43 76 -8 l43 25 47 -25
c59 -32 96 -32 150 0 l43 25 47 -25 c59 -32 96 -32 150 0 l43 25 47 -25 c63
-33 74 -32 74 8 0 27 -6 36 -40 55 -51 29 -109 29 -161 -1 l-39 -22 -39 23
c-52 29 -110 29 -162 -1 l-39 -22 -39 23 c-51 29 -114 28 -163 -1z"/>
</g>
</svg>
