<?xml version="1.0" standalone="no"?>
<!DOCTYPE svg PUBLIC "-//W3C//DTD SVG 20010904//EN"
 "http://www.w3.org/TR/2001/REC-SVG-20010904/DTD/svg10.dtd">
<svg version="1.0" xmlns="http://www.w3.org/2000/svg"
 width="96.000000pt" height="96.000000pt" viewBox="0 0 96.000000 96.000000"
 preserveAspectRatio="xMidYMid meet">
<metadata>
Created by potrace 1.16, written by Peter Selinger 2001-2019
</metadata>
<g transform="translate(0.000000,96.000000) scale(0.100000,-0.100000)"
fill="#000000" stroke="none">
<path d="M558 915 c-31 -17 -48 -44 -48 -74 0 -30 52 -29 72 1 10 14 25 21 46
21 54 0 57 -16 12 -60 -30 -30 -40 -49 -40 -72 0 -28 3 -31 30 -31 23 0 33 6
40 24 24 65 43 29 43 -84 0 -68 -13 -123 -48 -202 -6 -15 -2 -18 29 -18 34 0
39 3 59 48 19 40 22 65 22 169 0 117 6 138 25 87 7 -18 17 -24 40 -24 27 0 30
3 30 29 0 36 -42 89 -85 107 l-30 12 28 11 c31 12 71 1 80 -23 4 -10 18 -16
37 -16 24 0 30 4 30 21 0 58 -56 94 -134 85 -62 -8 -85 -8 -156 -1 -39 4 -63
1 -82 -10z"/>
<path d="M257 843 c-128 -68 -197 -149 -197 -233 0 -38 2 -40 30 -40 l29 0 3
-87 3 -88 205 0 205 0 3 88 3 87 29 0 c28 0 30 2 30 40 0 84 -70 166 -199 234
-38 20 -71 36 -72 36 -2 0 -34 -17 -72 -37z m135 -75 c54 -28 138 -108 138
-129 0 -5 -90 -9 -200 -9 -112 0 -200 4 -200 9 0 20 89 103 140 131 30 16 57
30 59 30 2 0 30 -14 63 -32z m88 -258 l0 -60 -60 0 -60 0 0 30 c0 27 -3 30
-30 30 -27 0 -30 -3 -30 -30 l0 -30 -60 0 -60 0 0 60 0 60 150 0 150 0 0 -60z"/>
<path d="M108 302 c-42 -24 -48 -31 -48 -61 0 -31 2 -33 28 -27 15 4 40 16 56
28 39 28 75 27 115 -3 45 -33 117 -33 162 0 18 13 45 24 59 24 14 0 41 -11 59
-24 45 -33 117 -33 162 0 40 30 76 31 115 3 16 -12 41 -24 57 -28 26 -6 27 -4
27 30 0 20 -4 36 -10 36 -5 0 -26 11 -46 25 -50 34 -114 34 -169 0 -51 -31
-65 -31 -111 0 -50 34 -114 34 -169 0 -51 -31 -65 -31 -111 0 -51 34 -113 33
-176 -3z"/>
<path d="M108 152 c-42 -24 -48 -31 -48 -61 0 -31 2 -33 28 -27 15 4 40 16 56
28 39 28 75 27 115 -3 45 -33 117 -33 162 0 41 31 77 31 118 0 24 -18 46 -24
81 -24 35 0 57 6 81 24 40 30 76 31 115 3 16 -12 41 -24 57 -28 26 -6 27 -4
27 30 0 20 -4 36 -10 36 -5 0 -26 11 -46 25 -50 34 -114 34 -169 0 -51 -31
-65 -31 -111 0 -50 34 -114 34 -169 0 -51 -31 -65 -31 -111 0 -51 34 -113 33
-176 -3z"/>
</g>
</svg>
