<?xml version="1.0" standalone="no"?>
<!DOCTYPE svg PUBLIC "-//W3C//DTD SVG 20010904//EN"
 "http://www.w3.org/TR/2001/REC-SVG-20010904/DTD/svg10.dtd">
<svg version="1.0" xmlns="http://www.w3.org/2000/svg"
 width="96.000000pt" height="96.000000pt" viewBox="0 0 96.000000 96.000000"
 preserveAspectRatio="xMidYMid meet">
<metadata>
Created by potrace 1.16, written by Peter Selinger 2001-2019
</metadata>
<g transform="translate(0.000000,96.000000) scale(0.100000,-0.100000)"
fill="#000000" stroke="none">
<path d="M226 690 l-221 -220 22 -22 c22 -21 23 -21 43 -3 20 18 20 18 21 -11
1 -16 1 -96 0 -177 -1 -145 0 -149 24 -173 l24 -24 341 0 341 0 24 24 c24 24
25 28 24 173 -1 81 -1 161 0 177 1 29 1 29 21 11 20 -18 21 -18 43 3 l21 22
-42 43 -42 43 0 142 0 142 -30 0 -30 0 0 -112 0 -112 -148 147 c-132 131 -152
147 -182 147 -31 0 -54 -20 -254 -220z m327 90 l62 -60 -135 0 -135 0 62 60
c33 33 66 60 73 60 7 0 40 -27 73 -60z m167 -165 l44 -45 -284 0 -284 0 44 45
44 45 196 0 196 0 44 -45z m74 -121 c20 -20 20 -38 0 -58 -21 -21 -151 -22
-178 -1 -29 22 -264 22 -272 0 -9 -22 -156 -21 -178 1 -9 8 -16 22 -16 29 0 7
7 21 16 29 13 14 56 16 314 16 258 0 301 -2 314 -16z m-224 -239 l0 -135 -90
0 -90 0 0 135 0 135 90 0 90 0 0 -135z m-240 60 l0 -45 -74 0 c-76 0 -106 13
-106 45 0 32 30 45 106 45 l74 0 0 -45z m464 29 c9 -8 16 -22 16 -29 0 -32
-30 -45 -106 -45 l-74 0 0 45 0 45 74 0 c54 0 79 -4 90 -16z m-464 -179 l0
-45 -74 0 c-76 0 -106 13 -106 45 0 32 30 45 106 45 l74 0 0 -45z m464 29 c9
-8 16 -22 16 -29 0 -32 -30 -45 -106 -45 l-74 0 0 45 0 45 74 0 c54 0 79 -4
90 -16z"/>
</g>
</svg>
