<?xml version="1.0" standalone="no"?>
<!DOCTYPE svg PUBLIC "-//W3C//DTD SVG 20010904//EN"
 "http://www.w3.org/TR/2001/REC-SVG-20010904/DTD/svg10.dtd">
<svg version="1.0" xmlns="http://www.w3.org/2000/svg"
 width="96.000000pt" height="96.000000pt" viewBox="0 0 96.000000 96.000000"
 preserveAspectRatio="xMidYMid meet">
<metadata>
Created by potrace 1.16, written by Peter Selinger 2001-2019
</metadata>
<g transform="translate(0.000000,96.000000) scale(0.100000,-0.100000)"
fill="#000000" stroke="none">
<path d="M591 861 c-13 -45 -52 -81 -87 -81 -21 0 -24 -5 -24 -35 0 -31 3 -35
25 -35 14 0 41 7 60 14 32 14 35 14 35 -3 0 -31 -39 -70 -81 -81 -35 -10 -39
-14 -39 -42 0 -30 1 -31 43 -25 23 2 50 8 60 12 14 6 17 1 17 -34 l0 -41 -175
0 c-170 0 -175 -1 -189 -22 -56 -90 -206 -385 -204 -402 3 -21 4 -21 448 -21
l445 0 3 22 c3 18 -177 369 -210 411 -6 6 -21 12 -34 12 -21 0 -24 4 -24 41 0
35 3 40 18 34 9 -4 36 -10 60 -12 41 -6 42 -5 42 25 0 28 -4 32 -38 42 -44 11
-68 33 -77 72 l-7 28 36 -15 c19 -8 47 -15 61 -15 22 0 25 4 25 35 0 30 -3 35
-24 35 -35 0 -74 36 -86 81 -9 34 -15 39 -39 39 -24 0 -30 -6 -40 -39z m160
-568 c46 -86 85 -161 87 -165 2 -4 -72 -8 -165 -8 l-169 0 -85 157 c-46 86
-85 161 -87 165 -2 4 72 8 165 8 l169 0 85 -157z"/>
<path d="M154 806 c-50 -50 -50 -122 0 -172 30 -30 40 -34 86 -34 46 0 56 4
86 34 30 30 34 40 34 86 0 46 -4 56 -34 86 -30 30 -40 34 -86 34 -46 0 -56 -4
-86 -34z"/>
</g>
</svg>
