<?xml version="1.0" standalone="no"?>
<!DOCTYPE svg PUBLIC "-//W3C//DTD SVG 20010904//EN"
 "http://www.w3.org/TR/2001/REC-SVG-20010904/DTD/svg10.dtd">
<svg version="1.0" xmlns="http://www.w3.org/2000/svg"
 width="96.000000pt" height="96.000000pt" viewBox="0 0 96.000000 96.000000"
 preserveAspectRatio="xMidYMid meet">
<metadata>
Created by potrace 1.16, written by Peter Selinger 2001-2019
</metadata>
<g transform="translate(0.000000,96.000000) scale(0.100000,-0.100000)"
fill="#000000" stroke="none">
<path d="M452 858 c-5 -7 -33 -60 -62 -118 -29 -58 -56 -107 -61 -110 -4 -3
-49 -17 -100 -30 -63 -17 -96 -31 -104 -45 -18 -28 -100 -457 -92 -478 6 -16
40 -17 449 -15 l443 3 3 157 3 156 -94 194 -94 193 -124 53 c-130 55 -150 60
-167 40z m148 -109 c102 -43 92 -33 138 -141 2 -4 -35 -8 -82 -8 l-86 0 0 -30
0 -30 103 0 103 0 22 -45 22 -45 -50 0 c-49 0 -50 -1 -50 -30 l0 -30 63 0 c59
0 65 -2 75 -25 7 -15 12 -74 12 -135 l0 -110 -105 0 -105 0 0 58 c0 111 -71
182 -180 182 -109 0 -180 -71 -180 -182 l0 -58 -101 0 c-91 0 -100 2 -95 18 3
9 12 56 22 105 l17 87 48 0 c48 0 49 1 49 30 0 28 -2 30 -41 30 l-41 0 7 47
c4 27 11 55 15 63 4 8 48 26 97 39 48 13 95 30 103 37 8 7 37 58 65 113 27 56
52 101 55 101 3 0 48 -18 100 -41z m-63 -471 c33 -17 53 -53 60 -108 l6 -50
-122 0 c-121 0 -121 0 -121 24 0 50 14 88 41 116 41 40 80 45 136 18z"/>
</g>
</svg>
