<?xml version="1.0" standalone="no"?>
<!DOCTYPE svg PUBLIC "-//W3C//DTD SVG 20010904//EN"
 "http://www.w3.org/TR/2001/REC-SVG-20010904/DTD/svg10.dtd">
<svg version="1.0" xmlns="http://www.w3.org/2000/svg"
 width="96.000000pt" height="96.000000pt" viewBox="0 0 96.000000 96.000000"
 preserveAspectRatio="xMidYMid meet">
<metadata>
Created by potrace 1.16, written by Peter Selinger 2001-2019
</metadata>
<g transform="translate(0.000000,96.000000) scale(0.100000,-0.100000)"
fill="#000000" stroke="none">
<path d="M342 821 c-29 -10 -78 -35 -108 -57 -49 -33 -66 -39 -128 -43 l-71
-6 0 -325 0 -325 445 0 445 0 0 325 0 325 -71 6 c-62 4 -79 10 -133 47 -35 23
-86 49 -114 57 -70 21 -199 19 -265 -4z m274 -76 c28 -12 70 -36 94 -54 36
-26 52 -31 102 -31 45 0 58 -3 58 -15 0 -13 -50 -15 -390 -15 -340 0 -390 2
-390 15 0 12 13 15 59 15 46 0 65 5 92 25 130 94 254 114 375 60z m-166 -202
c-1 -39 -55 -63 -143 -63 l-67 0 0 45 0 45 105 0 105 0 0 -27z m300 -18 l0
-45 -82 0 c-105 0 -158 21 -158 62 l0 28 120 0 120 0 0 -45z m-210 -111 c24
-23 25 -31 28 -159 l4 -135 -92 0 -92 0 4 134 c3 117 6 137 23 156 41 45 81
46 125 4z"/>
</g>
</svg>
