<?xml version="1.0" standalone="no"?>
<!DOCTYPE svg PUBLIC "-//W3C//DTD SVG 20010904//EN"
 "http://www.w3.org/TR/2001/REC-SVG-20010904/DTD/svg10.dtd">
<svg version="1.0" xmlns="http://www.w3.org/2000/svg"
 width="96.000000pt" height="96.000000pt" viewBox="0 0 96.000000 96.000000"
 preserveAspectRatio="xMidYMid meet">
<metadata>
Created by potrace 1.16, written by Peter Selinger 2001-2019
</metadata>
<g transform="translate(0.000000,96.000000) scale(0.100000,-0.100000)"
fill="#000000" stroke="none">
<path d="M378 922 l-43 -41 -3 -185 -3 -186 -30 0 -29 0 0 76 c0 70 -2 78 -29
105 -24 24 -38 29 -76 29 -38 0 -52 -5 -76 -29 -29 -29 -29 -30 -29 -151 0
-145 12 -178 75 -215 34 -21 55 -25 118 -25 l77 0 0 -90 0 -90 -135 0 -135 0
0 -30 0 -30 420 0 420 0 0 30 0 30 -135 0 -135 0 0 165 0 165 83 0 c94 0 133
17 167 72 17 28 20 51 20 146 0 112 0 114 -29 143 -24 24 -38 29 -76 29 -38 0
-52 -5 -76 -29 -26 -26 -29 -36 -29 -90 l0 -61 -30 0 -30 0 0 105 0 106 -39
41 c-36 40 -42 42 -104 46 -65 4 -66 4 -109 -36z m162 -58 c23 -23 25 -33 30
-142 l5 -117 85 0 85 0 5 73 c6 82 25 111 61 91 25 -13 32 -46 27 -129 -3 -60
-8 -74 -30 -97 -25 -25 -36 -27 -130 -32 l-103 -6 -3 -192 -2 -193 -90 0 -89
0 -3 118 -3 117 -95 6 c-97 6 -127 16 -150 53 -15 24 -26 161 -16 200 9 35 38
49 62 31 15 -11 20 -30 24 -102 l5 -88 85 0 85 0 5 191 c5 174 7 194 25 214
41 45 81 46 125 4z"/>
</g>
</svg>
