<?xml version="1.0" standalone="no"?>
<!DOCTYPE svg PUBLIC "-//W3C//DTD SVG 20010904//EN"
 "http://www.w3.org/TR/2001/REC-SVG-20010904/DTD/svg10.dtd">
<svg version="1.0" xmlns="http://www.w3.org/2000/svg"
 width="96.000000pt" height="96.000000pt" viewBox="0 0 96.000000 96.000000"
 preserveAspectRatio="xMidYMid meet">
<metadata>
Created by potrace 1.16, written by Peter Selinger 2001-2019
</metadata>
<g transform="translate(0.000000,96.000000) scale(0.100000,-0.100000)"
fill="#000000" stroke="none">
<path d="M365 803 c-187 -47 -341 -87 -343 -88 -8 -6 13 -65 24 -65 11 0 14
-54 16 -292 l3 -293 415 0 415 0 0 235 0 235 -117 3 -118 3 0 133 0 134 38 7
c54 9 64 18 56 48 -4 19 -12 27 -28 26 -11 0 -174 -39 -361 -86z m235 -138 l0
-125 -135 0 -136 0 3 92 3 92 125 32 c69 18 128 33 133 33 4 1 7 -55 7 -124z
m-330 -130 l0 -175 -75 0 -75 0 0 155 0 154 38 10 c35 9 104 28 110 30 1 1 2
-78 2 -174z m570 -235 l0 -180 -90 0 -89 0 -3 118 -3 117 -100 0 -100 0 -3
-117 -3 -118 -59 0 -60 0 0 180 0 180 255 0 255 0 0 -180z m-570 -90 l0 -90
-75 0 -75 0 0 90 0 90 75 0 75 0 0 -90z m330 0 l0 -90 -45 0 -45 0 0 90 0 90
45 0 45 0 0 -90z"/>
</g>
</svg>
