<?xml version="1.0" standalone="no"?>
<!DOCTYPE svg PUBLIC "-//W3C//DTD SVG 20010904//EN"
 "http://www.w3.org/TR/2001/REC-SVG-20010904/DTD/svg10.dtd">
<svg version="1.0" xmlns="http://www.w3.org/2000/svg"
 width="97.000000pt" height="96.000000pt" viewBox="0 0 97.000000 96.000000"
 preserveAspectRatio="xMidYMid meet">
<metadata>
Created by potrace 1.16, written by Peter Selinger 2001-2019
</metadata>
<g transform="translate(0.000000,96.000000) scale(0.100000,-0.100000)"
fill="#000000" stroke="none">
<path d="M75 918 c-3 -7 -4 -209 -3 -448 l3 -435 420 0 420 0 3 231 2 231
-120 104 -119 104 -3 110 -3 110 -90 0 -90 0 -3 -57 c-2 -32 -7 -58 -12 -58
-5 0 -10 26 -12 58 l-3 57 -90 0 -90 0 -3 -57 c-2 -32 -7 -58 -12 -58 -5 0
-10 26 -12 58 l-3 57 -88 3 c-64 2 -89 -1 -92 -10z m117 -105 l3 -58 75 0 75
0 3 58 c3 53 5 57 27 57 22 0 24 -4 27 -57 l3 -58 75 0 75 0 3 58 c3 53 5 57
27 57 25 0 25 -2 25 -82 l0 -83 -120 -104 -120 -104 0 -203 0 -204 -115 0
-115 0 0 45 0 45 45 0 c43 0 45 1 45 30 0 29 -2 30 -45 30 l-45 0 0 135 0 135
60 0 60 0 0 30 0 30 -60 0 -60 0 0 150 0 150 25 0 c22 0 24 -4 27 -57z m566
-268 l92 -80 0 -187 0 -188 -40 0 -40 0 0 75 c0 116 -38 165 -125 165 -87 0
-125 -52 -125 -170 l0 -70 -40 0 -40 0 0 188 0 187 101 88 c64 55 105 84 113
80 7 -5 54 -44 104 -88z m-70 -303 c7 -9 12 -44 12 -84 l0 -68 -55 0 -55 0 0
68 c0 39 5 75 13 84 23 30 60 30 85 0z"/>
</g>
</svg>
