<?xml version="1.0" standalone="no"?>
<!DOCTYPE svg PUBLIC "-//W3C//DTD SVG 20010904//EN"
 "http://www.w3.org/TR/2001/REC-SVG-20010904/DTD/svg10.dtd">
<svg version="1.0" xmlns="http://www.w3.org/2000/svg"
 width="96.000000pt" height="96.000000pt" viewBox="0 0 96.000000 96.000000"
 preserveAspectRatio="xMidYMid meet">
<metadata>
Created by potrace 1.16, written by Peter Selinger 2001-2019
</metadata>
<g transform="translate(0.000000,96.000000) scale(0.100000,-0.100000)"
fill="#000000" stroke="none">
<path d="M110 864 c-29 -28 -42 -50 -47 -76 -5 -37 -5 -38 26 -38 23 0 34 6
40 23 20 53 88 78 126 47 14 -12 11 -16 -22 -34 -42 -24 -83 -87 -83 -128 0
-24 4 -28 30 -28 20 0 33 6 36 18 12 36 29 64 44 72 13 7 15 -3 12 -80 -3 -64
1 -98 13 -126 16 -38 16 -39 -7 -54 -74 -49 -128 -125 -128 -182 0 -20 -8 -30
-30 -40 -24 -10 -30 -19 -30 -45 0 -41 13 -42 80 -7 l50 26 50 -26 c63 -33 97
-33 160 0 l50 26 50 -26 c63 -33 97 -33 160 0 l50 26 50 -26 c67 -35 80 -34
80 7 0 26 -6 35 -30 45 -20 9 -30 21 -30 35 0 38 -44 101 -85 124 -31 18 -54
23 -100 22 -51 -2 -67 2 -103 26 -27 18 -61 30 -93 33 -46 4 -51 7 -70 44 -32
62 -28 218 6 218 20 0 73 -57 77 -83 2 -17 11 -23 36 -25 29 -3 32 -1 32 25 0
42 -41 105 -83 129 -33 18 -36 22 -22 34 38 31 106 6 126 -47 6 -17 17 -23 39
-23 27 0 30 3 30 30 0 22 -11 43 -39 72 -36 39 -42 42 -103 46 -58 4 -67 2
-96 -23 l-33 -28 -25 24 c-19 18 -39 24 -89 27 -62 4 -64 3 -105 -34z m355
-467 c11 -5 35 -23 52 -40 29 -27 35 -29 55 -19 50 26 99 19 137 -19 37 -36
39 -49 9 -49 -13 0 -38 -9 -56 -20 -41 -25 -63 -25 -104 0 -20 12 -51 20 -78
20 -27 0 -58 -8 -78 -20 -41 -25 -63 -25 -104 0 -18 11 -43 20 -55 20 -29 0
-29 18 0 60 53 78 144 106 222 67z"/>
<path d="M133 97 c-37 -19 -42 -27 -43 -54 0 -41 13 -42 80 -7 l50 26 50 -26
c27 -14 63 -26 80 -26 17 0 53 12 80 26 l50 26 50 -26 c27 -14 63 -26 80 -26
17 0 53 12 80 26 l50 26 50 -26 c67 -35 80 -34 80 7 -1 28 -6 35 -45 55 -56
28 -119 29 -163 2 -41 -25 -63 -25 -104 0 -43 26 -113 26 -156 0 -18 -11 -41
-20 -52 -20 -11 0 -34 9 -52 20 -44 26 -111 25 -165 -3z"/>
</g>
</svg>
