<?xml version="1.0" standalone="no"?>
<!DOCTYPE svg PUBLIC "-//W3C//DTD SVG 20010904//EN"
 "http://www.w3.org/TR/2001/REC-SVG-20010904/DTD/svg10.dtd">
<svg version="1.0" xmlns="http://www.w3.org/2000/svg"
 width="96.000000pt" height="96.000000pt" viewBox="0 0 96.000000 96.000000"
 preserveAspectRatio="xMidYMid meet">
<metadata>
Created by potrace 1.16, written by Peter Selinger 2001-2019
</metadata>
<g transform="translate(0.000000,96.000000) scale(0.100000,-0.100000)"
fill="#000000" stroke="none">
<path d="M415 935 c-18 -17 -25 -35 -25 -62 0 -38 -1 -38 -58 -55 -121 -36
-244 -159 -280 -279 -12 -43 -22 -59 -34 -59 -13 0 -18 -8 -18 -30 l0 -30 480
0 480 0 0 30 c0 22 -5 30 -17 30 -13 0 -23 16 -35 58 -36 121 -159 244 -279
280 -59 17 -59 17 -59 55 0 53 -35 87 -90 87 -30 0 -47 -6 -65 -25z m202 -187
c60 -22 128 -72 166 -122 29 -38 66 -112 67 -133 0 -10 -81 -13 -370 -13 -289
0 -370 3 -370 13 0 31 54 122 100 168 108 108 261 141 407 87z"/>
<path d="M656 339 c-32 -17 -59 -29 -60 -27 -21 45 -11 43 -237 46 -192 2
-215 1 -226 -15 -9 -11 -13 -54 -13 -125 0 -101 1 -108 23 -122 29 -19 255
-76 302 -76 44 0 366 158 389 192 27 38 21 95 -13 129 -39 39 -87 38 -165 -2z
m-138 -56 c-5 -28 -48 -43 -120 -43 l-68 0 0 -30 0 -30 87 0 88 0 120 62 c123
63 155 69 155 28 0 -16 -32 -36 -160 -100 -88 -44 -169 -80 -181 -80 -18 0
-90 17 -221 51 l-38 10 0 74 0 75 171 0 c156 0 170 -1 167 -17z"/>
</g>
</svg>
