<?xml version="1.0" standalone="no"?>
<!DOCTYPE svg PUBLIC "-//W3C//DTD SVG 20010904//EN"
 "http://www.w3.org/TR/2001/REC-SVG-20010904/DTD/svg10.dtd">
<svg version="1.0" xmlns="http://www.w3.org/2000/svg"
 width="96.000000pt" height="96.000000pt" viewBox="0 0 96.000000 96.000000"
 preserveAspectRatio="xMidYMid meet">

<g transform="translate(0.000000,96.000000) scale(0.100000,-0.100000)"
fill="#000000" stroke="none">
<path d="M265 915 c-53 -27 -60 -47 -60 -185 0 -125 0 -125 -40 -210 -36 -76
-40 -93 -39 -160 0 -60 7 -91 32 -155 18 -44 41 -95 52 -113 l20 -32 85 0 c82
0 85 1 106 30 22 29 22 29 48 11 93 -67 234 -45 314 50 112 130 40 342 -130
380 -52 12 -79 9 -160 -16 -18 -6 -25 0 -45 37 -21 38 -23 57 -23 173 -1 72
-4 138 -9 147 -11 24 -68 58 -97 58 -13 0 -38 -7 -54 -15z m87 -62 c18 -16 24
-66 12 -110 -5 -19 -13 -23 -49 -23 -47 0 -55 11 -55 79 0 61 51 91 92 54z m8
-207 c0 -8 3 -21 6 -30 5 -13 -3 -16 -51 -16 -48 0 -56 3 -51 16 3 9 6 22 6
30 0 10 13 14 45 14 32 0 45 -4 45 -14z m58 -163 c40 -86 38 -172 -8 -278
l-35 -80 -57 -3 -57 -3 -25 48 c-62 124 -69 216 -23 316 l26 57 76 0 76 0 27
-57z m255 -19 c68 -34 107 -95 107 -164 0 -135 -149 -223 -265 -157 -46 26
-47 36 -20 137 12 44 15 81 11 117 -6 50 -5 53 21 67 37 20 106 20 146 0z"/>
<path d="M580 404 c-11 -12 -10 -18 3 -32 16 -15 18 -15 34 0 13 14 14 20 3
32 -7 9 -16 16 -20 16 -4 0 -13 -7 -20 -16z"/>
<path d="M670 374 c-11 -12 -10 -18 3 -32 16 -15 18 -15 34 0 13 14 14 20 3
32 -7 9 -16 16 -20 16 -4 0 -13 -7 -20 -16z"/>
<path d="M580 314 c-11 -12 -10 -18 3 -32 16 -15 18 -15 34 0 13 14 14 20 3
32 -7 9 -16 16 -20 16 -4 0 -13 -7 -20 -16z"/>
</g>
</svg>
