<?xml version="1.0" standalone="no"?>
<!DOCTYPE svg PUBLIC "-//W3C//DTD SVG 20010904//EN"
 "http://www.w3.org/TR/2001/REC-SVG-20010904/DTD/svg10.dtd">
<svg version="1.0" xmlns="http://www.w3.org/2000/svg"
 width="96.000000pt" height="96.000000pt" viewBox="0 0 96.000000 96.000000"
 preserveAspectRatio="xMidYMid meet">

<g transform="translate(0.000000,96.000000) scale(0.100000,-0.100000)"
fill="#000000" stroke="none">
<path d="M50 760 c-18 -18 -20 -34 -20 -162 -1 -110 -4 -148 -15 -162 -12 -16
-15 -57 -15 -198 l0 -178 30 0 c29 0 30 2 30 45 l0 45 240 0 240 0 0 -45 c0
-43 1 -45 30 -45 29 0 30 2 30 45 l0 45 150 0 150 0 0 -45 c0 -43 1 -45 30
-45 l30 0 0 183 c0 129 -4 187 -12 195 -7 7 -43 12 -90 12 l-78 0 0 45 0 45
49 0 c73 0 78 12 46 112 -42 127 -43 128 -125 128 -82 0 -83 -1 -125 -128 -32
-100 -27 -112 46 -112 l49 0 0 -45 0 -45 -75 0 -75 0 0 145 c0 200 22 185
-270 185 -217 0 -231 -1 -250 -20z m460 -160 l0 -120 -30 0 c-30 0 -30 1 -30
55 0 86 -14 95 -150 95 -136 0 -150 -9 -150 -95 0 -54 0 -55 -30 -55 l-30 0 0
120 0 120 210 0 210 0 0 -120z m298 60 l21 -60 -79 0 -79 0 21 60 c20 59 20
60 58 60 38 0 38 -1 58 -60z m-418 -135 l0 -45 -90 0 -90 0 0 45 0 45 90 0 90
0 0 -45z m148 -212 l3 -103 -241 0 -240 0 0 98 c0 54 3 102 7 106 4 3 110 5
237 4 l231 -3 3 -102z m362 -13 l0 -90 -150 0 -150 0 0 90 0 90 150 0 150 0 0
-90z"/>
<path d="M730 314 c-11 -12 -10 -18 3 -32 16 -15 18 -15 34 0 13 14 14 20 3
32 -7 9 -16 16 -20 16 -4 0 -13 -7 -20 -16z"/>
</g>
</svg>
