<?xml version="1.0" standalone="no"?>
<!DOCTYPE svg PUBLIC "-//W3C//DTD SVG 20010904//EN"
 "http://www.w3.org/TR/2001/REC-SVG-20010904/DTD/svg10.dtd">
<svg version="1.0" xmlns="http://www.w3.org/2000/svg"
 width="96.000000pt" height="96.000000pt" viewBox="0 0 96.000000 96.000000"
 preserveAspectRatio="xMidYMid meet">

<g transform="translate(0.000000,96.000000) scale(0.100000,-0.100000)"
fill="#000000" stroke="none">
<path d="M72 892 c-9 -7 -12 -97 -10 -418 l3 -409 415 0 415 0 0 415 0 415
-405 2 c-223 2 -411 -1 -418 -5z m768 -142 l0 -90 -360 0 -360 0 0 90 0 90
360 0 360 0 0 -90z m0 -227 l0 -78 -37 -1 c-26 0 -42 -8 -60 -28 -22 -26 -23
-35 -23 -162 l0 -134 -30 0 -30 0 0 114 c0 159 -11 181 -122 257 l-57 39 -53
-34 c-63 -41 -103 -81 -117 -119 -6 -16 -11 -80 -11 -143 l0 -114 -30 0 -30 0
0 134 c0 127 -1 136 -23 162 -18 20 -34 28 -60 28 l-37 1 0 78 0 77 360 0 360
0 0 -77z m-314 -93 c51 -36 74 -74 74 -125 l0 -35 -120 0 -120 0 0 35 c0 50
23 89 72 124 24 17 44 30 46 31 2 0 23 -14 48 -30z m-358 -52 c8 -8 12 -53 12
-135 l0 -123 -30 0 -30 0 0 123 c0 114 7 147 30 147 3 0 11 -5 18 -12z m660 0
c8 -8 12 -53 12 -135 l0 -123 -30 0 -30 0 0 123 c0 114 7 147 30 147 3 0 11
-5 18 -12z m-228 -213 l0 -45 -120 0 -120 0 0 45 0 45 120 0 120 0 0 -45z"/>
<path d="M252 771 c-23 -14 -10 -46 18 -46 20 0 25 5 25 25 0 26 -20 36 -43
21z"/>
<path d="M462 771 c-23 -14 -10 -46 18 -46 20 0 25 5 25 25 0 26 -20 36 -43
21z"/>
<path d="M672 771 c-23 -14 -10 -46 18 -46 20 0 25 5 25 25 0 26 -20 36 -43
21z"/>
</g>
</svg>
