<?xml version="1.0" standalone="no"?>
<!DOCTYPE svg PUBLIC "-//W3C//DTD SVG 20010904//EN"
 "http://www.w3.org/TR/2001/REC-SVG-20010904/DTD/svg10.dtd">
<svg version="1.0" xmlns="http://www.w3.org/2000/svg"
 width="96.000000pt" height="96.000000pt" viewBox="0 0 96.000000 96.000000"
 preserveAspectRatio="xMidYMid meet">

<g transform="translate(0.000000,96.000000) scale(0.100000,-0.100000)"
fill="#000000" stroke="none">
<path d="M815 924 c-68 -17 -241 -97 -312 -145 -201 -136 -381 -355 -448 -545
-43 -120 -29 -187 41 -200 155 -29 504 203 664 440 107 159 191 375 170 432
-5 13 -14 24 -19 24 -5 0 -15 2 -23 4 -7 2 -40 -2 -73 -10z m55 -74 c0 -27
-41 -132 -81 -210 l-34 -65 -5 85 -5 85 -85 5 -84 5 61 33 c76 40 181 81 211
82 15 0 22 -6 22 -20z m-500 -435 c-151 -151 -275 -273 -277 -271 -8 7 29 103
66 171 57 107 138 211 232 299 l81 76 86 0 87 0 -275 -275z m320 141 l0 -84
-71 -76 c-82 -87 -168 -159 -264 -217 -64 -39 -181 -89 -208 -89 -6 0 112 124
263 275 151 151 276 275 277 275 2 0 3 -38 3 -84z"/>
</g>
</svg>
