<?xml version="1.0" standalone="no"?>
<!DOCTYPE svg PUBLIC "-//W3C//DTD SVG 20010904//EN"
 "http://www.w3.org/TR/2001/REC-SVG-20010904/DTD/svg10.dtd">
<svg version="1.0" xmlns="http://www.w3.org/2000/svg"
 width="96.000000pt" height="96.000000pt" viewBox="0 0 96.000000 96.000000"
 preserveAspectRatio="xMidYMid meet">

<g transform="translate(0.000000,96.000000) scale(0.100000,-0.100000)"
fill="#000000" stroke="none">
<path d="M278 824 c-109 -58 -198 -109 -198 -113 0 -4 6 -16 14 -26 13 -17 16
-18 42 -5 16 8 32 16 37 18 4 2 7 -60 7 -137 l0 -141 -60 0 -60 0 0 -30 0 -30
69 0 69 0 96 -82 96 -82 0 -68 0 -68 30 0 c27 0 30 3 30 30 0 27 3 30 30 30
27 0 30 -3 30 -30 0 -27 3 -30 30 -30 l30 0 0 68 0 68 96 82 96 82 69 0 69 0
0 30 0 30 -60 0 -60 0 0 140 c0 77 3 140 6 140 3 0 19 -8 36 -17 28 -17 30
-17 44 1 8 11 14 23 14 27 0 7 -372 211 -395 217 -5 1 -99 -45 -207 -104z
m328 -26 l114 -61 0 -159 0 -158 -75 0 -74 0 -3 103 -3 102 -65 3 c-112 5
-110 8 -110 -108 l0 -100 -75 0 -75 0 0 158 0 157 113 62 c61 34 118 62 125
62 7 1 65 -27 128 -61z m-96 -303 l0 -75 -30 0 -30 0 0 75 0 75 30 0 30 0 0
-75z m-120 -176 l0 -40 -27 19 c-16 11 -37 29 -47 41 l-19 21 46 0 47 0 0 -41z
m120 11 c0 -27 -3 -30 -30 -30 -27 0 -30 3 -30 30 0 27 3 30 30 30 27 0 30 -3
30 -30z m134 9 c-10 -12 -31 -30 -46 -41 l-28 -19 0 40 0 41 47 0 46 0 -19
-21z m-134 -129 c0 -27 -3 -30 -30 -30 -27 0 -30 3 -30 30 0 27 3 30 30 30 27
0 30 -3 30 -30z"/>
<path d="M462 771 c-23 -14 -10 -46 18 -46 20 0 25 5 25 25 0 26 -20 36 -43
21z"/>
</g>
</svg>
