<?xml version="1.0" standalone="no"?>
<!DOCTYPE svg PUBLIC "-//W3C//DTD SVG 20010904//EN"
 "http://www.w3.org/TR/2001/REC-SVG-20010904/DTD/svg10.dtd">
<svg version="1.0" xmlns="http://www.w3.org/2000/svg"
 width="96.000000pt" height="96.000000pt" viewBox="0 0 96.000000 96.000000"
 preserveAspectRatio="xMidYMid meet">

<g transform="translate(0.000000,96.000000) scale(0.100000,-0.100000)"
fill="#000000" stroke="none">
<path d="M408 821 l-61 -130 -40 21 -41 20 -23 -28 c-67 -84 -123 -235 -123
-335 0 -98 57 -221 129 -278 82 -64 117 -76 231 -76 96 0 110 2 158 28 72 38
138 106 170 175 23 50 27 69 26 152 0 106 -23 183 -85 286 -39 64 -141 178
-223 248 l-56 48 -62 -131z m179 -55 c158 -170 221 -336 182 -481 -14 -51 -63
-129 -95 -150 -24 -16 -25 -16 -17 12 25 88 -14 189 -111 289 l-66 69 -66 -69
c-97 -101 -135 -199 -111 -291 7 -28 4 -27 -43 23 -101 107 -107 256 -18 425
17 31 35 57 40 57 5 0 27 -9 49 -21 23 -11 42 -19 44 -17 2 2 28 56 58 121 31
64 60 117 65 117 6 0 45 -38 89 -84z m-62 -388 c46 -54 73 -105 81 -155 8 -54
-23 -114 -70 -137 -44 -21 -68 -20 -115 4 -72 36 -88 118 -42 208 22 42 88
122 101 122 5 0 25 -19 45 -42z"/>
</g>
</svg>
