<?xml version="1.0" standalone="no"?>
<!DOCTYPE svg PUBLIC "-//W3C//DTD SVG 20010904//EN"
 "http://www.w3.org/TR/2001/REC-SVG-20010904/DTD/svg10.dtd">
<svg version="1.0" xmlns="http://www.w3.org/2000/svg"
 width="96.000000pt" height="96.000000pt" viewBox="0 0 96.000000 96.000000"
 preserveAspectRatio="xMidYMid meet">

<g transform="translate(0.000000,96.000000) scale(0.100000,-0.100000)"
fill="#000000" stroke="none">
<path d="M174 876 c-59 -27 -116 -90 -132 -145 -18 -60 -16 -71 16 -71 25 0
29 5 40 45 14 54 54 99 105 120 37 15 49 8 23 -14 -15 -13 -70 -130 -64 -137
12 -12 68 23 81 52 16 33 74 104 86 104 3 0 12 -4 19 -9 11 -7 7 -17 -17 -51
-39 -53 -39 -70 -3 -70 19 0 35 10 57 37 l29 37 18 -40 c17 -39 25 -109 11
-102 -101 52 -173 55 -254 12 -92 -49 -142 -150 -124 -252 10 -59 26 -78 54
-62 16 8 20 17 16 28 -15 35 -17 101 -5 137 14 43 22 38 39 -25 7 -25 19 -54
27 -64 12 -17 17 -18 38 -7 l24 13 -19 42 c-10 23 -21 61 -25 85 -6 36 -4 46
11 58 31 22 45 16 45 -20 0 -39 27 -137 38 -137 4 0 17 7 29 15 21 14 21 17 7
50 -16 40 -19 105 -3 105 16 0 51 -20 77 -43 29 -27 28 -60 -3 -154 -30 -88
-74 -159 -149 -237 l-54 -56 -76 0 -76 0 0 -30 0 -30 420 0 420 0 0 30 0 30
-75 0 -75 0 0 33 c0 73 -74 146 -148 147 -78 0 -152 -73 -152 -150 l0 -30 -76
0 -76 0 37 41 c62 69 114 158 140 241 14 44 25 87 25 98 0 35 81 110 120 110
13 0 13 -69 -1 -109 -10 -28 -9 -34 7 -46 11 -8 23 -13 28 -12 16 5 34 69 35
120 1 48 8 55 42 37 25 -14 25 -64 -1 -132 -19 -50 -19 -54 -3 -66 9 -6 20
-12 25 -12 11 0 34 47 48 100 l13 45 13 -30 c16 -37 18 -94 3 -132 -8 -23 -7
-30 7 -40 29 -21 40 -15 52 26 49 161 -64 315 -229 314 -43 -1 -70 -8 -104
-26 l-45 -26 0 35 c0 38 27 114 41 114 5 0 19 -16 31 -35 17 -25 30 -35 50
-35 41 0 41 14 2 65 -28 37 -33 50 -22 56 7 5 16 9 19 9 13 0 75 -76 88 -107
7 -17 20 -33 29 -36 9 -3 25 -8 35 -12 11 -5 17 -3 17 6 0 17 -43 105 -67 137
l-17 24 40 -16 c52 -22 92 -67 106 -121 11 -40 15 -45 41 -45 29 0 29 1 23 41
-9 58 -29 91 -80 136 -100 88 -245 80 -332 -19 l-30 -35 -51 47 c-80 73 -167
89 -259 46z m487 -665 c19 -20 29 -40 29 -60 l0 -31 -90 0 -90 0 0 31 c0 42
47 89 90 89 22 0 41 -9 61 -29z"/>
</g>
</svg>
