<?xml version="1.0" standalone="no"?>
<!DOCTYPE svg PUBLIC "-//W3C//DTD SVG 20010904//EN"
 "http://www.w3.org/TR/2001/REC-SVG-20010904/DTD/svg10.dtd">
<svg version="1.0" xmlns="http://www.w3.org/2000/svg"
 width="96.000000pt" height="96.000000pt" viewBox="0 0 96.000000 96.000000"
 preserveAspectRatio="xMidYMid meet">

<g transform="translate(0.000000,96.000000) scale(0.100000,-0.100000)"
fill="#000000" stroke="none">
<path d="M300 900 l0 -30 75 0 75 0 0 -35 c0 -20 -5 -35 -12 -35 -6 0 -22 -9
-34 -21 -20 -19 -26 -20 -59 -9 -77 25 -151 -20 -162 -99 -6 -41 13 -86 43
-104 10 -6 10 -13 -2 -35 -26 -50 -11 -118 32 -145 10 -6 10 -13 -2 -35 -35
-68 3 -150 79 -167 22 -5 27 -12 27 -37 0 -88 104 -146 181 -101 32 19 59 68
59 106 0 19 6 26 28 30 65 13 107 96 83 163 -11 30 -10 36 8 56 27 29 37 83
22 125 -11 28 -10 36 4 50 45 45 46 111 3 158 -40 43 -91 55 -136 32 -29 -14
-32 -13 -53 9 -12 13 -28 24 -36 24 -8 0 -13 13 -13 35 l0 35 75 0 75 0 0 30
0 30 -180 0 -180 0 0 -30z m220 -170 c11 -11 20 -28 20 -38 0 -29 -29 -62 -56
-62 -29 0 -64 32 -64 60 0 11 9 29 20 40 11 11 29 20 40 20 11 0 29 -9 40 -20z
m-180 -30 c11 -11 20 -28 20 -38 0 -29 -29 -62 -56 -62 -29 0 -64 32 -64 60 0
11 9 29 20 40 11 11 29 20 40 20 11 0 29 -9 40 -20z m360 0 c11 -11 20 -28 20
-38 0 -29 -29 -62 -56 -62 -29 0 -64 32 -64 60 0 11 9 29 20 40 11 11 29 20
40 20 11 0 29 -9 40 -20z m-180 -150 c11 -11 20 -28 20 -38 0 -29 -29 -62 -56
-62 -29 0 -64 32 -64 60 0 11 9 29 20 40 11 11 29 20 40 20 11 0 29 -9 40 -20z
m-159 -53 c3 -20 9 -40 12 -44 12 -11 -15 -33 -39 -33 -29 0 -64 33 -64 60 0
28 37 62 63 58 17 -2 23 -12 28 -41z m309 23 c50 -50 -7 -124 -70 -90 -19 10
-19 9 6 98 5 19 42 14 64 -8z m-150 -150 c11 -11 20 -28 20 -38 0 -29 -29 -62
-56 -62 -29 0 -64 32 -64 60 0 11 9 29 20 40 11 11 29 20 40 20 11 0 29 -9 40
-20z m-160 -43 c0 -18 7 -42 15 -53 20 -27 19 -34 -10 -34 -30 0 -65 32 -65
60 0 21 33 60 50 60 6 0 10 -15 10 -33z m280 13 c24 -24 25 -48 4 -78 -14 -20
-53 -30 -66 -16 -4 3 0 17 8 32 8 15 14 39 14 55 0 32 13 34 40 7z m-120 -150
c11 -11 20 -28 20 -38 0 -29 -29 -62 -56 -62 -29 0 -64 32 -64 60 0 11 9 29
20 40 11 11 29 20 40 20 11 0 29 -9 40 -20z"/>
</g>
</svg>
